#!OML:ASF E:\Steps\Project 1\Capture day 1\Session 2\Subject.ASF
:FULLY-SPECIFIED
:DEGREES
64
root 9.26946 16.2961 19.5872 -152.305 -2.71897 179.616
lowerback -31.2657 -1.77988 -5.39947
upperback -3.40449 -1.58778 -0.287543
thorax 12.5591 -1.45584 1.88018
lowerneck -1.39275 -2.3456 -2.11155
upperneck 5.39341 -3.2744 2.29343
head 2.00445 -1.65833 1.00777
rclavicle 6.90777e-015 -1.63003e-014
rhumerus -35.2238 -22.1194 -78.8198
rradius 25.2493
rwrist 4.17022
rhand -9.30238 -50.527
rfingers 7.12502
rthumb 16.6554 -79.8324
lclavicle 6.90777e-015 -1.63003e-014
lhumerus -27.4559 8.86057 80.9716
lradius 15.6485
lwrist -12.1613
lhand -22.2202 -12.8768
lfingers 7.12502
lthumb 4.19618 17.0616
rfemur -23.1892 8.46997 17.5631
rtibia 6.54066
rfoot -19.2857 -6.65197
rtoes -33.0609
lfemur -24.5623 -10.9853 -16.7283
ltibia 7.64828
lfoot -7.90051 1.82567
ltoes -31.7543
65
root 9.26964 16.2957 19.5875 -152.327 -2.71382 179.64
lowerback -31.2498 -1.765 -5.38994
upperback -3.42667 -1.57808 -0.278146
thorax 12.5266 -1.45168 1.88959
lowerneck -1.40281 -2.38649 -2.02799
upperneck 5.33979 -3.32279 2.1929
head 1.98569 -1.68195 0.96036
rclavicle -7.95139e-015 1.19271e-014
rhumerus -35.3016 -21.9628 -78.8547
rradius 25.3366
rwrist 3.99519
rhand -9.22635 -50.3896
rfingers 7.12502
rthumb 16.7285 -79.6889
lclavicle -7.95139e-015 1.19271e-014
lhumerus -27.439 9.19922 80.7905
lradius 15.4784
lwrist -12.7035
lhand -22.1217 -12.763
lfingers 7.12502
lthumb 4.29126 17.1735
rfemur -23.1442 8.49979 17.5981
rtibia 6.51645
rfoot -19.3246 -6.6605
rtoes -33.5616
lfemur -24.5281 -10.9071 -16.7483
ltibia 7.66366
lfoot -7.84488 1.90869
ltoes -33.6286
66
root 9.26997 16.2948 19.588 -152.325 -2.7102 179.66
lowerback -31.2462 -1.75458 -5.36459
upperback -3.46158 -1.58248 -0.271401
thorax 12.4855 -1.45427 1.88173
lowerneck -1.41805 -2.42459 -1.96396
upperneck 5.29186 -3.36693 2.09198
head 1.96997 -1.70384 0.916317
rclavicle -7.25564e-015 -2.38542e-014
rhumerus -35.3132 -22.0041 -78.8214
rradius 25.2794
rwrist 4.03268
rhand -9.15457 -50.6295
rfingers 7.12502
rthumb 16.7976 -79.9229
lclavicle -7.25564e-015 -2.38542e-014
lhumerus -27.5069 9.59733 80.5521
lradius 15.4528
lwrist -13.3715
lhand -21.7367 -12.6206
lfingers 7.12502
lthumb 4.66298 17.308
rfemur -23.1456 8.51632 17.6213
rtibia 6.49476
rfoot -19.3462 -6.5943
rtoes -33.186
lfemur -24.5351 -10.9317 -16.6939
ltibia 7.64648
lfoot -7.87424 1.85936
ltoes -32.5157
67
root 9.27033 16.2955 19.5905 -152.302 -2.76172 179.632
lowerback -31.2608 -1.79662 -5.40806
upperback -3.46389 -1.62471 -0.25263
thorax 12.4931 -1.47617 1.90823
lowerneck -1.45571 -2.45909 -1.91389
upperneck 5.25493 -3.40595 1.99708
head 1.96214 -1.72314 0.876505
rclavicle 1.3418e-014 1.31198e-014
rhumerus -35.2561 -22.2195 -78.7189
rradius 25.1543
rwrist 4.30851
rhand -9.01079 -50.5656
rfingers 7.12502
rthumb 16.9361 -79.8472
lclavicle 1.3418e-014 1.31198e-014
lhumerus -27.5743 9.70725 80.4799
lradius 15.5221
lwrist -13.545
lhand -21.6741 -12.5372
lfingers 7.12502
lthumb 4.72346 17.3901
rfemur -23.1605 8.50452 17.5886
rtibia 6.43266
rfoot -19.2447 -6.65072
rtoes -32.6241
lfemur -24.5891 -10.9959 -16.6703
ltibia 7.63072
lfoot -7.88755 1.79611
ltoes -31.2124
68
root 9.26922 16.2935 19.5895 -152.233 -2.69833 179.675
lowerback -31.4029 -1.75764 -5.36046
upperback -3.45377 -1.58588 -0.262765
thorax 12.5612 -1.45987 1.88224
lowerneck -1.49299 -2.50452 -1.82374
upperneck 5.21412 -3.46106 1.90323
head 1.9524 -1.74973 0.829876
rclavicle 1.25731e-014 1.39149e-014
rhumerus -35.2692 -22.2484 -78.7292
rradius 25.1376
rwrist 4.34244
rhand -9.03712 -50.1584
rfingers 7.12502
rthumb 16.9107 -79.4422
lclavicle 1.25731e-014 1.39149e-014
lhumerus -27.619 9.52037 80.4894
lradius 15.5689
lwrist -13.4026
lhand -21.8325 -12.806
lfingers 7.12502
lthumb 4.57047 17.1247
rfemur -23.2579 8.47765 17.6251
rtibia 6.43916
rfoot -19.1778 -6.58581
rtoes -32.5373
lfemur -24.6009 -10.9911 -16.6177
ltibia 7.53101
lfoot -7.90229 1.85489
ltoes -30.6634
69
root 9.26864 16.292 19.5918 -152.156 -2.695 179.734
lowerback -31.4639 -1.71075 -5.26851
upperback -3.48864 -1.56254 -0.278744
thorax 12.5442 -1.44832 1.82297
lowerneck -1.50797 -2.55322 -1.76083
upperneck 5.17329 -3.52094 1.81801
head 1.93951 -1.77933 0.790841
rclavicle -2.23633e-015 -3.85642e-014
rhumerus -35.3033 -22.217 -78.7707
rradius 25.1396
rwrist 4.20422
rhand -9.25052 -50.114
rfingers 7.12502
rthumb 16.7053 -79.4152
lclavicle -2.23633e-015 -3.85642e-014
lhumerus -27.6349 9.53865 80.4084
lradius 15.4789
lwrist -13.5372
lhand -21.9456 -13.0359
lfingers 7.12502
lthumb 4.46127 16.8971
rfemur -23.3859 8.41804 17.6817
rtibia 6.48853
rfoot -19.2226 -6.49263
rtoes -32.6742
lfemur -24.643 -11.0314 -16.5146
ltibia 7.4091
lfoot -7.82488 1.93977
ltoes -30.254
70
root 9.26859 16.2924 19.5953 -152.156 -2.70848 179.738
lowerback -31.4371 -1.70711 -5.26113
upperback -3.49671 -1.56257 -0.275844
thorax 12.5237 -1.44758 1.82306
lowerneck -1.5312 -2.59479 -1.72699
upperneck 5.13388 -3.57044 1.73884
head 1.92911 -1.80408 0.758869
rclavicle 3.03147e-015 -7.15625e-015
rhumerus -35.2218 -22.3142 -78.7514
rradius 25.0622
rwrist 4.19426
rhand -9.27281 -50.2537
rfingers 7.12502
rthumb 16.6838 -79.5567
lclavicle 3.03147e-015 -7.15625e-015
lhumerus -27.6021 9.73648 80.3054
lradius 15.3174
lwrist -13.8409
lhand -21.8928 -13.2269
lfingers 7.12502
lthumb 4.51228 16.705
rfemur -23.4177 8.38042 17.6842
rtibia 6.53143
rfoot -19.2791 -6.44529
rtoes -32.7834
lfemur -24.6348 -11.05 -16.4952
ltibia 7.3211
lfoot -7.67562 1.99971
ltoes -30.545
